<?xml version="1.0" encoding="utf-8"?>
<!-- Generator: Adobe Illustrator 19.0.0, SVG Export Plug-In . SVG Version: 6.00 Build 0)  -->
<svg version="1.1" id="Layer_1" xmlns="http://www.w3.org/2000/svg" xmlns:xlink="http://www.w3.org/1999/xlink" x="0px" y="0px"
	 viewBox="0 0 500 500" style="enable-background:new 0 0 500 500;" xml:space="preserve">
<style type="text/css">
	.st0{fill:#470000;}
</style>
<g id="XMLID_1_">
	<path id="XMLID_19_" class="st0" d="M322.6,227.8V246H312v-9.9h-15.5v9.1h3.8v-3.1h8v15.6h-7.6V254h-3.9v8.7h15.1v-8.8H323v17.3
		h-27c-3.7,0.3-5.5-0.7-5.2-2.9c-2.3,3.4-7.3,4.4-15.1,3v-8.1h6.1l-0.1-10.4c0.2-2.1-0.9-3.1-3.3-2.9l2.5-1c0.6-0.3,0.9-0.8,1-1.5
		v-10.9h-6.1v-8.7h10.6c2.6,0,3.6,1.1,3,3.2l0.9-1.9c0.9-1.2,2.1-1.6,3.5-1.3H322.6z"/>
	<path id="XMLID_12_" class="st0" d="M376.6,261c0.2-5-0.5-9.3-2.2-10.9c-1.9-0.7-3.1-1.1-3.6-1.6c3.6-0.4,5.7-1.9,6.2-4.7
		c1.3-8.1-0.4-13.1-5.2-15.1l-13.7-1.1c-8.3-0.3-13.3,0.1-15.1,1.2l-0.5,0.6c-0.5-1.3-1.8-2.5-4.1-1.5H329v10h6.6
		c0.3,4,0.1,7.8-0.5,9.5c-0.5,1.6-1.8,2.2-4,2.1l2,0.2c1.3,0.4,2,0.8,2.1,1.9c0.3,0.2,0.4,3.2,0.3,9.2H329v10h4.6
		c5.7,0,9-0.5,9.6-2.9c0.6,1.9,2,2.9,4.4,2.9h8.5v-10h-6v-7h3.9c5.3-1,7.7,1.7,7.2,6.3c-0.5,7.6,1.2,10.7,5.1,10.7H380v-10H376.6z
		 M359.7,245H350v-7h9.2c1.9,0,3,1.1,3.2,3.4C362.8,242.7,361.9,243,359.7,245z"/>
	<polygon id="XMLID_18_" class="st0" points="342.5,229.5 342.7,230.9 342.3,230.3 	"/>
	<path id="XMLID_15_" class="st0" d="M431,245.5c-0.4-3.6-2-7.2-4.6-10.8c-4.5-5.9-10.9-8.8-19.1-8.7c-7.9,0.1-14.1,3-18.5,8.8
		c-3.4,4.4-4.9,8.5-4.6,12.4c0,1.8-1.6,2.6-5,2.4l2.5,0.5c1.7,0.4,2.5,1.1,2.5,2c0,5.7,2.4,10.8,7.3,15.2c4.7,4.2,10.1,6.3,16.2,6.4
		c5.5,0,10.5-2,14.9-6c4.7-4.1,7.7-9.4,8.8-15.7c0.2-1.2,1-2,2.3-2.2l1.3-0.2C432.6,249.5,431.3,248.1,431,245.5z M415.1,256
		c-0.9,3.2-2.5,5.3-4.7,6.4l-6.4-0.4c-2-0.6-3.2-2.1-3.5-4.4c-0.3-1.7-0.1-3.4,0.3-5l2.1-2.8c-1.6-1.7-2.5-3.2-2.5-4.7
		c-0.1-2.8,0.6-5.1,2.1-6.7c1.2-1.2,3-1.8,5.4-1.8c2.8,0,4.7,1,5.8,2.9c1.7,2.8,1.9,5.2,0.8,7.2l-2.2,3l1.7,2
		C415.2,253.4,415.5,254.8,415.1,256z"/>
	<path id="XMLID_6_" class="st0" d="M213,262c0.2-6-0.5-9.6-2.2-11.2c-1.9-0.6-3.1-1.3-3.5-1.7c3.5-0.4,5.6-2,6.1-4.8
		c1.3-8.1-0.4-13.1-5.3-15.1l-13.7-1.3c-8.3-0.3-13.3,0.1-15.1,1.3l-0.5,0.5c-0.5-1.3-1.9-1.6-4.1-1.6H165v10h7
		c0.3,4,0.1,7.9-0.5,9.7c-0.5,1.5-1.9,2.2-4,2.1l2.1,0.4c1.3,0.3,2,1.1,2.1,2.2c0.3,0.3,0.4,3.6,0.3,9.6H165v9h5
		c5.8,1,9-0.5,9.6-2.9c0.6,1.9,2.1,2.9,4.4,2.9h8v-9h-5v-8h3.4c5.4,0,7.8,1.7,7.2,6.3c-0.5,7.6,1.2,11.7,5.1,10.7H216v-9H213z
		 M196.2,245H187v-7h8.6c1.9,0,3,1.1,3.2,3.5C199.2,242.7,198.3,244,196.2,245z"/>
	<polygon id="XMLID_17_" class="st0" points="178.9,229.7 179.1,231 178.7,230.5 	"/>
	<path id="XMLID_16_" class="st0" d="M146.8,242.1v15.6h-7.6V254h-4v8.7h15.2v-8.8h11.1v17.3h-27c-3.7,0.3-5.4-0.7-5.3-2.9
		c-2.2,3.4-7.2,4.4-15,3v-8.1h6.1l-0.1-10.4c0.2-2.1-1-3.1-3.4-2.9l2.5-1c0.6-0.3,1-0.8,1.1-1.5v-10.9h-6.1v-8.7h10.6
		c2.5,0,3.5,1.1,3,3.2l0.9-1.9c0.9-1.2,2-1.6,3.4-1.3h29V246h-10.6v-9.9h-15.6v9.1h3.9v-3.1H146.8z"/>
	<path id="XMLID_13_" class="st0" d="M234.6,229.4l0.1,1.5l-0.4-0.6C234.2,229.9,234.3,229.7,234.6,229.4z"/>
	<path id="XMLID_2_" class="st0" d="M268.7,261c0.2-5-0.6-9.3-2.2-10.9c-1.9-0.7-3.1-1.1-3.6-1.6c3.6-0.4,5.7-1.9,6.2-4.7
		c1.3-8.1-0.4-13.1-5.2-15.1l-13.7-1.1c-8.4-0.3-13.4,0.1-15.2,1.2l-0.4,0.6c-0.5-1.3-1.9-2.4-4.1-1.4H221v10h6.6
		c0.3,4,0.1,7.8-0.5,9.5c-0.5,1.6-1.8,2.2-3.9,2.1l2.1,0.2c1.3,0.4,1.9,0.8,1.9,1.9c0.4,0.2,0.5,3.2,0.3,9.2H221v10h4.6
		c5.8,0,9-0.5,9.6-2.9c0.6,1.9,2.1,2.9,4.4,2.9h8.4v-10h-6v-7h4c5.3-1,7.6,1.7,7.1,6.3c-0.5,7.6,1.2,10.7,5.1,10.7H272v-10H268.7z
		 M251.7,245H243v-7h8.2c1.9,0,3,1.1,3.2,3.4C254.8,242.7,253.9,243,251.7,245z"/>
	<path id="XMLID_10_" class="st0" d="M110.5,227.8l0.1,18.9h-10.1v-10.5H85.4v9.5h2.9v-3.6h8.9V258h-8.4v-3.3h-3.8l0.6,7.4
		c1.9,1.3,4.3,1.8,7,1.3v8.7c-9.4,0.3-14.1-1.3-14.1-4.9c-0.5,4-5,5.4-13.6,4.2v-8.7h6.1v-9.8c0.7-1.8-0.4-2.8-3.4-3.1
		c2.6-0.3,3.8-1.3,3.6-3v-9.7c-2.6-0.4-4.6-0.4-5.7,0v-9.3h7.5c3.6-0.8,5.4,0.3,5.3,3.2l0.7-1.6c0.6-1.1,1.2-1.6,1.8-1.6H110.5"/>
</g>
</svg>
